<?xml version="1.0" encoding="utf-8"?>
<!-- Generator: Adobe Illustrator 22.1.0, SVG Export Plug-In . SVG Version: 6.00 Build 0)  -->
<svg version="1.1" id="Layer_1" xmlns="http://www.w3.org/2000/svg" xmlns:xlink="http://www.w3.org/1999/xlink" x="0px" y="0px"
	 viewBox="0 0 25 22.2" style="enable-background:new 0 0 25 22.2;" xml:space="preserve">
<style type="text/css">
	.st0{fill:#632A7B;}
	.st1{font-family:'Roboto-Medium';}
	.st2{font-size:13px;}
</style>
<path class="st0" d="M13.4,21.5c-1.5,0-3-0.3-4.3-0.9c-0.8,0.6-2,0.8-3.7,0.8l0,0c-1.7,0-3.3-0.3-3.4-0.3c-0.2,0-0.4-0.2-0.5-0.4
	c-0.1-0.2,0-0.4,0.2-0.6c2.3-2.3,2.1-4.4,2.1-4.8c-0.6-1.4-0.9-2.8-0.9-4.3c0-5.8,4.7-10.6,10.5-10.6S23.9,5.1,23.9,11
	S19.2,21.5,13.4,21.5z M9,19.3c0.1,0,0.2,0,0.3,0.1c1.3,0.6,2.7,1,4.1,1c5.1,0,9.3-4.2,9.3-9.4s-4.2-9.4-9.3-9.4S4.1,5.8,4.1,11
	c0,1.4,0.3,2.7,0.8,3.9V15c0,0.1,0.5,2.5-1.6,5.1c0.6,0.1,1.3,0.1,2.1,0.1c1.5,0,2.6-0.3,3.2-0.8C8.7,19.4,8.8,19.3,9,19.3z"/>
<text transform="matrix(1 0 0 1 9.7376 15.7596)" class="st0 st1 st2">?</text>
</svg>
